<svg id="Layer_1" class="cls-1" data-name="Layer 1" xmlns="http://www.w3.org/2000/svg" viewBox="0 0 30 22"><style>.cls-1{fill:hsl(266, 8%, 18%);}</style><path d="M29,14a11,11,0,0,0-7.72,3.17A9.5,9.5,0,1,0,19.5,36H29a11,11,0,0,0,0-22Zm0,2a9,9,0,0,1,0,18,8.14,8.14,0,0,1-3.83-1A16,16,0,0,1,21,29.65L20,28.51c-.56-.61-1.12-1.23-1.7-1.8a1,1,0,0,1,1.42-1.42c.59.6,1.17,1.23,1.75,1.87C23.74,29.65,25.89,32,29,32a7,7,0,0,0,0-14,6.86,6.86,0,0,0-3.8,1.13A11.72,11.72,0,0,0,23.38,18,9,9,0,0,1,29,16Zm-9.5,3a6.51,6.51,0,0,1,3.2.88,9.55,9.55,0,0,1,1.46,1,24.33,24.33,0,0,1,2.69,2.55l.86.88a1,1,0,0,1-1.42,1.42l-.89-.92C23.7,23,21.78,21,19.5,21a5.5,5.5,0,0,0,0,11,5,5,0,0,0,.95-.09,19.47,19.47,0,0,0,1.77,1.58A7.38,7.38,0,0,1,19.5,34a7.5,7.5,0,0,1,0-15Z" transform="translate(-10 -14)"/></svg>