<svg xmlns="http://www.w3.org/2000/svg" xmlns:xlink="http://www.w3.org/1999/xlink" viewBox="0 0 203.5 162"><defs><style>.cls-1{fill:none;}.cls-2{fill:#2d2a31;}.cls-3{clip-path:url(#clip-path);}.cls-4{fill:#eec399;}.cls-5{fill:#fffef9;}.cls-6{fill:#fcbe0c;}.cls-7{fill:#df3164;}.cls-8{fill:#eb593b;}.cls-9{fill:#cbc9e6;}.cls-10{fill:#847e87;}.cls-11{fill:#ededed;}.cls-12{fill:#90573b;}</style><clipPath id="clip-path"><circle id="_Ellipse-mask_" data-name="&lt;Ellipse-mask&gt;" class="cls-1" cx="80" cy="80" r="80"/></clipPath></defs><g id="Layer_2" data-name="Layer 2"><g id="Layer_1-2" data-name="Layer 1"><g id="cat-n-bkg"><circle class="cls-2" cx="80" cy="80" r="80"/><g id="cat-n-mask"><g class="cls-3"><g id="cat"><polygon id="fur-out" class="cls-4" points="104.5 36 104.5 27 95.5 27 95.5 18 77.5 18 77.5 36 72.5 36 50.5 36 41.5 36 41.5 27 32.5 27 32.5 18 14.5 18 14.5 54 18.5 54 23.5 54 23.5 72 32.5 72 32.5 81 41.5 81 41.5 90 50.5 90 50.5 99 59.5 99 59.5 117 50.5 117 50.5 126 41.5 126 41.5 162 50.5 162 59.5 162 72.5 162 95.5 162 95.5 99 104.5 99 104.5 90 113.5 90 113.5 81 113.5 76 113.5 72 113.5 58 113.5 36 104.5 36"/><polygon id="fur-in" class="cls-5" points="95.5 81 59.5 81 59.5 99 68.5 99 68.5 162 86.5 162 86.5 99 95.5 99 95.5 81"/><g id="eyes"><rect class="cls-6" x="41.5" y="54" width="27" height="27"/><rect class="cls-6" x="95.5" y="54" width="18" height="27"/></g><g id="eyes-pupils"><rect class="cls-2" x="41.5" y="63" width="18" height="18"/><rect class="cls-2" x="95.5" y="63" width="9" height="18"/></g><rect id="nose" class="cls-7" x="77.5" y="81" width="9" height="9"/><g id="colar"><rect class="cls-8" x="59.5" y="99" width="9" height="9"/><rect class="cls-8" x="86.5" y="99" width="9" height="9"/></g><rect id="head-shadow" class="cls-9" x="68.5" y="108" width="18" height="9"/><rect id="laptop-keyboard" class="cls-10" x="41.5" y="153" width="27" height="9"/><polygon id="laptop-screen" class="cls-9" points="113.5 108 113.5 117 104.5 117 104.5 126 95.5 126 95.5 135 86.5 135 86.5 144 77.5 144 77.5 153 68.5 153 68.5 162 77.5 162 140.5 162 140.5 153 149.5 153 149.5 144 158.5 144 158.5 135 158.5 126 158.5 117 158.5 108 113.5 108"/><g id="laptop-logo"><rect class="cls-11" x="122.5" y="131" width="9" height="9"/><rect class="cls-11" x="131.5" y="122" width="9" height="9"/></g><g id="tail"><rect class="cls-12" x="32.5" y="144" width="9" height="9"/><rect class="cls-12" x="23.5" y="117" width="9" height="27"/><rect class="cls-12" x="32.5" y="108" width="9" height="9"/></g></g></g></g></g><g id="sparkle"><rect class="cls-2" x="131.5" width="9" height="9"/><rect class="cls-2" x="158.5" y="27" width="9" height="9"/><rect class="cls-2" x="167.5" y="18" width="9" height="9"/><rect class="cls-2" x="176.5" y="27" width="9" height="9"/><rect class="cls-2" x="167.5" y="36" width="9" height="9"/><rect class="cls-2" x="194.5" y="45" width="9" height="9"/><rect class="cls-2" x="176.5" y="72" width="9" height="9"/></g></g></g></svg>