<svg xmlns="http://www.w3.org/2000/svg" width="1366" height="595.513" viewBox="0 0 1366 595.513">
  <path id="Subtraction_9" data-name="Subtraction 9" d="M121,595.513H-1245V245l37.966-20.3a142.387,142.387,0,0,0,22.391-14.85,142.394,142.394,0,0,0,19.2-18.8l65.6-77.7a142.411,142.411,0,0,1,21.708-20.787,142.46,142.46,0,0,1,25.3-15.614,142.486,142.486,0,0,1,28-10.01,142.358,142.358,0,0,1,29.792-3.973l241.486-6.439a142.363,142.363,0,0,0,26.151-3.138l232.954-50.2A142.38,142.38,0,0,1-464.521,0,142.5,142.5,0,0,1-439.7,2.183a142.462,142.462,0,0,1,24.163,6.524l223.7,82.135a142.448,142.448,0,0,0,25.459,6.747L71.861,137.574A142.022,142.022,0,0,1,121,155.595V595.512Z" transform="translate(1245.001)" fill="#fde3e0"/>
</svg>
