<svg xmlns="http://www.w3.org/2000/svg" xmlns:xlink="http://www.w3.org/1999/xlink" viewBox="0 0 207.5 161.92"><defs><style>.cls-1{fill:none;}.cls-2{fill:#2d2a31;}.cls-3{clip-path:url(#clip-path);}.cls-4{fill:#fffef9;}.cls-5{fill:#37946e;}.cls-6{fill:#c7133b;}.cls-7{fill:#df3164;}.cls-8{fill:#cbc9e6;}.cls-9{fill:#d9a066;}.cls-10{fill:#fcbe0c;}.cls-11{fill:#eec399;}</style><clipPath id="clip-path"><circle class="cls-1" cx="80" cy="80" r="80"/></clipPath></defs><g id="Layer_2" data-name="Layer 2"><g id="Layer_1-2" data-name="Layer 1"><g id="new-cupcake-icon"><circle class="cls-2" cx="80" cy="80" r="80"/><g class="cls-3"><g id="new-cupcake"><polygon class="cls-4" points="131.59 89.92 131.59 80.92 122.59 80.92 122.59 71.92 113.59 71.92 104.59 71.92 95.59 71.92 95.59 80.92 68.59 80.92 59.59 80.92 59.59 71.92 50.59 71.92 41.59 71.92 32.59 71.92 32.59 80.92 23.59 80.92 23.59 89.92 23.59 98.92 14.59 98.92 14.59 107.92 14.59 116.92 23.59 116.92 23.59 143.92 104.59 143.92 109.59 143.92 113.59 143.92 122.59 143.92 131.59 143.92 131.59 134.92 131.59 129.92 131.59 125.92 140.59 125.92 140.59 116.92 140.59 107.92 140.59 98.92 131.59 98.92 131.59 89.92"/><rect class="cls-5" x="59.59" y="17.92" width="9" height="9"/><polygon class="cls-5" points="68.59 26.92 68.59 35.92 68.59 44.92 77.59 44.92 86.59 44.92 86.59 35.92 86.59 26.92 68.59 26.92"/><polygon class="cls-6" points="95.59 40.42 95.59 44.92 50.59 44.92 50.59 62.7 50.59 71.92 59.59 71.92 59.59 80.92 86.59 80.92 95.59 80.92 95.59 71.92 104.59 71.92 104.59 67.76 104.59 44.92 104.59 40.42 95.59 40.42"/><polygon class="cls-7" points="77.59 35.92 77.59 44.92 68.59 44.92 68.59 53.92 59.59 53.92 59.59 44.92 50.59 44.92 50.59 62.92 59.59 62.92 59.59 71.92 86.59 71.92 86.59 62.92 95.59 62.92 95.59 35.92 77.59 35.92"/><rect class="cls-7" x="59.59" y="35.92" width="9" height="9"/><rect class="cls-4" x="59.59" y="44.92" width="9" height="9"/><rect class="cls-8" x="95.59" y="71.92" width="9" height="9"/><rect class="cls-8" x="68.59" y="80.92" width="27" height="9"/><rect class="cls-8" x="50.59" y="71.92" width="9" height="9"/><rect class="cls-8" x="113.59" y="71.92" width="9" height="9"/><rect class="cls-8" x="122.59" y="80.92" width="9" height="9"/><rect class="cls-8" x="113.59" y="89.92" width="9" height="9"/><rect class="cls-8" x="104.59" y="98.92" width="9" height="9"/><rect class="cls-8" x="32.59" y="71.92" width="9" height="9"/><rect class="cls-8" x="23.59" y="80.92" width="9" height="9"/><rect class="cls-8" x="32.59" y="89.92" width="9" height="9"/><rect class="cls-8" x="41.59" y="98.92" width="18" height="9"/><rect class="cls-8" x="14.59" y="107.92" width="9" height="9"/><rect class="cls-8" x="23.59" y="116.92" width="9" height="9"/><rect class="cls-8" x="32.59" y="125.92" width="9" height="9"/><rect class="cls-8" x="41.59" y="134.92" width="18" height="9"/><rect class="cls-8" x="59.59" y="125.92" width="9" height="9"/><rect class="cls-8" x="68.59" y="116.92" width="9" height="9"/><rect class="cls-8" x="77.59" y="107.92" width="9" height="9"/><rect class="cls-8" x="86.59" y="116.92" width="9" height="9"/><rect class="cls-8" x="95.59" y="125.92" width="9" height="9"/><rect class="cls-8" x="104.59" y="134.92" width="9" height="9"/><rect class="cls-8" x="113.59" y="116.92" width="9" height="9"/><rect class="cls-8" x="122.59" y="125.92" width="9" height="9"/><rect class="cls-8" x="131.59" y="116.92" width="9" height="9"/><rect class="cls-8" x="131.59" y="98.92" width="9" height="9"/><polygon class="cls-9" points="122.59 134.92 122.59 125.92 113.59 125.92 113.59 134.92 113.59 143.92 104.59 143.92 104.59 134.92 95.59 134.92 95.59 125.92 86.59 125.92 86.59 116.92 77.59 116.92 77.59 125.92 68.59 125.92 68.59 134.92 59.59 134.92 59.59 143.92 41.59 143.92 41.59 134.92 32.59 134.92 32.59 125.92 23.59 125.92 23.59 134.92 23.59 143.92 32.59 143.92 32.59 152.92 41.59 152.92 41.59 161.92 59.59 161.92 68.59 161.92 95.59 161.92 104.59 161.92 113.59 161.92 113.59 152.92 122.59 152.92 122.59 143.92 131.59 143.92 131.59 134.92 122.59 134.92"/><rect class="cls-10" x="32.59" y="134.92" width="9" height="9"/><rect class="cls-10" x="86.59" y="134.92" width="18" height="9"/><rect class="cls-10" x="113.59" y="134.92" width="9" height="9"/><rect class="cls-10" x="104.59" y="143.92" width="9" height="9"/><rect class="cls-10" x="50.59" y="143.92" width="36" height="9"/><rect class="cls-11" x="59.59" y="134.92" width="27" height="9"/></g></g><rect class="cls-2" x="135.5" width="9" height="9"/><rect class="cls-2" x="162.5" y="27" width="9" height="9"/><rect class="cls-2" x="171.5" y="18" width="9" height="9"/><rect class="cls-2" x="180.5" y="27" width="9" height="9"/><rect class="cls-2" x="171.5" y="36" width="9" height="9"/><rect class="cls-2" x="198.5" y="45" width="9" height="9"/><rect class="cls-2" x="180.5" y="72" width="9" height="9"/></g></g></g></svg>