<svg xmlns="http://www.w3.org/2000/svg" viewBox="0 0 126 144"><defs><style>.cls-1{fill:#37946e;}.cls-2{fill:#fffef9;}.cls-3{fill:#df3164;}.cls-4{fill:#c7133b;}.cls-5{fill:#cbc9e6;}.cls-6{fill:#d9a066;}.cls-7{fill:#fcbe0c;}.cls-8{fill:#eec399;}</style></defs><g id="Layer_2" data-name="Layer 2"><g id="Layer_1-2" data-name="Layer 1"><g id="cupcake"><g id="cherry-leaf"><rect class="cls-1" x="45" width="9" height="9"/><polygon class="cls-1" points="63 9 54 9 54 18 54 27 63 27 63 18 72 18 72 9 63 9"/></g><rect id="cherry-highlight" class="cls-2" x="45" y="27" width="9" height="9"/><g id="cherry-light"><rect class="cls-3" x="45" y="18" width="9" height="9"/><polygon class="cls-3" points="72 18 63 18 63 27 54 27 54 36 45 36 45 27 36 27 36 36 36 45 45 45 45 54 54 54 63 54 72 54 72 45 81 45 81 36 81 27 81 18 72 18"/></g><g id="cherry"><polygon class="cls-4" points="81 27 81 36 81 45 72 45 72 54 63 54 54 54 45 54 45 63 54 63 63 63 72 63 81 63 81 54 90 54 90 45 90 36 90 27 81 27"/><rect class="cls-4" x="36" y="45" width="9" height="9"/></g><g id="frosting-shadow"><rect class="cls-5" x="81" y="54" width="9" height="9"/><polygon class="cls-5" points="72 72 81 72 81 63 72 63 63 63 54 63 54 72 63 72 72 72"/><rect class="cls-5" x="36" y="54" width="9" height="9"/><rect class="cls-5" x="18" y="54" width="9" height="9"/><rect class="cls-5" x="99" y="54" width="9" height="9"/><rect class="cls-5" x="9" y="63" width="9" height="9"/><rect class="cls-5" x="18" y="72" width="9" height="9"/><polygon class="cls-5" points="36 90 45 90 45 81 36 81 27 81 27 90 36 90"/><rect class="cls-5" x="108" y="63" width="9" height="9"/><rect class="cls-5" x="99" y="72" width="9" height="9"/><rect class="cls-5" x="90" y="81" width="9" height="9"/><rect class="cls-5" x="117" y="81" width="9" height="9"/><rect class="cls-5" x="117" y="99" width="9" height="9"/><rect class="cls-5" x="108" y="108" width="9" height="9"/><rect class="cls-5" x="99" y="99" width="9" height="9"/><rect class="cls-5" x="90" y="117" width="9" height="9"/><rect class="cls-5" x="81" y="108" width="9" height="9"/><rect class="cls-5" x="72" y="99" width="9" height="9"/><rect class="cls-5" x="63" y="90" width="9" height="9"/><rect class="cls-5" x="54" y="99" width="9" height="9"/><rect class="cls-5" x="45" y="108" width="9" height="9"/><polygon class="cls-5" points="27 117 27 126 36 126 45 126 45 117 36 117 27 117"/><rect class="cls-5" x="18" y="108" width="9" height="9"/><rect class="cls-5" x="9" y="99" width="9" height="9"/><rect class="cls-5" y="90" width="9" height="9"/></g><polygon id="frosting" class="cls-2" points="117 90 117 81 117 72 108 72 108 81 99 81 99 90 90 90 90 81 99 81 99 72 108 72 108 63 99 63 99 54 90 54 90 63 81 63 81 72 72 72 63 72 54 72 54 63 45 63 36 63 36 54 27 54 27 63 18 63 18 72 27 72 27 81 36 81 45 81 45 90 36 90 27 90 27 81 18 81 18 72 9 72 9 81 0 81 0 90 9 90 9 99 18 99 18 108 27 108 27 117 36 117 45 117 45 108 54 108 54 99 63 99 63 90 72 90 72 99 81 99 81 108 90 108 90 117 99 117 99 108 99 99 108 99 108 108 117 108 117 99 126 99 126 90 117 90"/><g id="cake"><polygon class="cls-6" points="72 117 81 117 81 108 72 108 72 99 63 99 63 108 54 108 54 117 63 117 72 117"/><rect class="cls-6" x="99" y="108" width="9" height="9"/><polygon class="cls-6" points="18 108 9 108 9 117 9 126 18 126 18 117 18 108"/><rect class="cls-6" x="108" y="117" width="9" height="9"/><rect class="cls-6" x="99" y="126" width="9" height="9"/><polygon class="cls-6" points="90 126 81 126 72 126 72 135 63 135 54 135 45 135 36 135 36 126 27 126 18 126 18 135 27 135 27 144 36 144 45 144 54 144 63 144 72 144 81 144 90 144 99 144 99 135 90 135 90 126"/></g><g id="filling"><rect class="cls-7" x="99" y="117" width="9" height="9"/><rect class="cls-7" x="90" y="126" width="9" height="9"/><rect class="cls-7" x="18" y="117" width="9" height="9"/><polygon class="cls-7" points="81 117 72 117 72 126 81 126 90 126 90 117 81 117"/><polygon class="cls-7" points="54 126 45 126 36 126 36 135 45 135 54 135 63 135 72 135 72 126 63 126 54 126"/></g><polygon id="cake-highlight" class="cls-8" points="63 117 54 117 45 117 45 126 54 126 63 126 72 126 72 117 63 117"/></g></g></g></svg>