<svg xmlns="http://www.w3.org/2000/svg" width="1366" height="697.482" viewBox="0 0 1366 697.482">
  <path id="Subtraction_24" data-name="Subtraction 24" d="M-70,1064h0l-1366,0V546.894l40.3-47.7a166.589,166.589,0,0,1,25.411-24.321,166.662,166.662,0,0,1,29.619-18.267,166.558,166.558,0,0,1,32.769-11.711,166.608,166.608,0,0,1,34.866-4.647l283.147-7.529a167.139,167.139,0,0,0,30.6-3.668l273.117-58.807a166.55,166.55,0,0,1,35.016-3.727,166.778,166.778,0,0,1,29.044,2.553,166.824,166.824,0,0,1,28.275,7.631l262.272,96.244a166.96,166.96,0,0,0,29.79,7.89L-70,519.725V1064Z" transform="translate(1436 -366.521)" fill="#fde3e0"/>
</svg>
