<svg xmlns="http://www.w3.org/2000/svg" xmlns:xlink="http://www.w3.org/1999/xlink" viewBox="0 0 207.5 163"><defs><style>.cls-1{fill:none;}.cls-2{fill:#2d2a31;}.cls-3{clip-path:url(#clip-path);}.cls-4{fill:#90573b;}.cls-5{fill:#eec399;}.cls-6{fill:#fffef9;}.cls-7{fill:#663931;}.cls-8{fill:#df3164;}.cls-9{fill:#eb593b;}.cls-10{fill:#d9a066;}</style><clipPath id="clip-path"><circle class="cls-1" cx="80" cy="80" r="80"/></clipPath></defs><g id="Layer_2" data-name="Layer 2"><g id="Layer_1-2" data-name="Layer 1"><circle class="cls-2" cx="80" cy="80" r="80"/><g class="cls-3"><g id="new-avatar"><polygon class="cls-4" points="117.5 46 117.5 37 108.5 37 108.5 28 99.5 28 99.5 19 36.5 19 36.5 28 27.5 28 27.5 37 18.5 37 18.5 100 27.5 100 27.5 118 18.5 118 18.5 127 27.5 127 54.5 127 54.5 118 63.5 118 63.5 127 72.5 127 90.5 127 99.5 127 99.5 118 108.5 118 108.5 127 117.5 127 117.5 118 126.5 118 126.5 46 117.5 46"/><polygon class="cls-5" points="117.5 55 72.5 55 63.5 55 58.5 55 54.5 55 45.5 55 45.5 100 54.5 100 54.5 109 58.5 109 63.5 109 63.5 127 99.5 127 99.5 109 108.5 109 108.5 100 117.5 100 117.5 55"/><g id="eyeliner"><rect class="cls-2" x="45.5" y="55" width="9" height="9"/><rect class="cls-2" x="117.5" y="55" width="9" height="9"/></g><g id="eyes"><rect class="cls-6" x="54.5" y="64" width="18" height="9"/><rect class="cls-6" x="99.5" y="64" width="18" height="9"/><rect class="cls-7" x="99.5" y="64" width="9" height="9"/><rect class="cls-7" x="54.5" y="64" width="9" height="9"/></g><rect class="cls-8" x="81.5" y="91" width="18" height="9"/><polygon class="cls-9" points="122.5 127 99.5 127 63.5 127 54.5 127 54.5 136 45.5 136 45.5 145 36.5 145 36.5 163 45.5 163 54.5 163 68.5 163 135.5 163 135.5 127 122.5 127"/><rect class="cls-10" x="63.5" y="118" width="36" height="9"/><polygon class="cls-5" points="117.5 118 117.5 127 108.5 127 108.5 136 117.5 136 117.5 145 135.5 145 135.5 118 117.5 118"/></g></g><rect class="cls-2" x="135.5" y="1" width="9" height="9"/><rect class="cls-2" x="162.5" y="28" width="9" height="9"/><rect class="cls-2" x="171.5" y="10" width="9" height="18"/><rect class="cls-2" x="180.5" y="28" width="9" height="9"/><rect class="cls-2" x="171.5" y="37" width="9" height="18"/><rect class="cls-2" x="198.5" y="46" width="9" height="9"/><rect class="cls-2" x="180.5" y="73" width="9" height="9"/></g></g></svg>