<svg xmlns="http://www.w3.org/2000/svg" viewBox="0 0 211.38 45.54"><defs><style>.cls-1{fill:#2d2a31;}</style></defs><g id="Layer_2" data-name="Layer 2"><g id="Layer_1-2" data-name="Layer 1"><path class="cls-1" d="M28.08,11.7c2.94,0,3.42,1.32,5,1.32.42,0,.66-.3.66-.9,0-1.26-2.7-3.06-5.7-3.06-7.32,0-12.48,5.76-12.48,16.14,0,6.66,2.76,10.5,9.36,10.5,4.26,0,7.5-1.86,7.5-4.38h0c0-.48-.05-1.46.49-1.46.72,0,.77.57.77,1.29s0-.61,0,0c-.54,9.11-5.3,14.39-17.34,14.39C5.7,45.54,0,40.56,0,30.12c0-16,8.94-24.6,22.14-24.6C31.74,5.52,36,9.72,36,16.68,36,22.74,32.46,29,26.28,29c-3.84,0-6.72-1.8-6.72-7.08S22,11.7,28.08,11.7Z"/><path class="cls-1" d="M52.56,39.42c.84,0,1.2-1,1.32-2.76V35c.06-.42.3-.66.6-.66s.66.18.66.84c0,7.26-3.42,10-9.36,10C39,45.18,37.5,42,37.5,36.36c0-9.3,3.84-20.46,3.84-26.4,0-1.14-.36-1.44-1-1.44-.9,0-1.26,1-1.32,2.82C39,12.12,39,12.72,39,13c0,.48-.24.72-.6.72s-.66-.24-.66-.9c0-7.2,3.36-10,9.66-10,6.06,0,7.74,2.94,7.74,8.28,0,9.84-3.54,20.52-3.54,27C51.6,39.06,52,39.42,52.56,39.42Z"/><path class="cls-1" d="M71.64,11.28c7.62,0,10.62,3.3,17.76,3.3,1.08,0,2-.48,2-1.68,0-.18-.06-.36-.06-.6,0-.48.3-.66.72-.66.6,0,.72.42.72.84,0,5.4-2.94,19.2-2.94,25.62,0,1,.3,1.32.84,1.32.78,0,1.32-.84,1.38-2.76.06-.84.06-1.44.06-1.62,0-.48.18-.72.6-.72s.66.18.66.9c0,7.2-3.3,10-8.94,10-4.86,0-7.5-1.8-7.5-6.36,0-3.6.78-6,.78-7.44A.68.68,0,0,0,77,30.6c-.42,0-.72.18-.84.84-1.26,9.06-3.36,13.74-10.38,13.74-6.6,0-8.94-3.9-8.94-11.16C56.82,19.38,62,11.28,71.64,11.28Zm4.2,1.56c-2.64,0-5.28,10.68-5.28,21.06,0,2.64.42,3.66,1.8,3.66s2.16-2,2.88-5.94c.78-4.86,2.28-14.22,2.28-16.2C77.52,13.92,77.1,12.84,75.84,12.84Z"/><path class="cls-1" d="M111.84,44.58c-2,0-8.52-2.52-13.2-2.52-1.08,0-2,.54-2,1.68,0,.18.06.42.06.6A.6.6,0,0,1,96,45c-.66,0-.78-.42-.78-.84,0-8.28,3.48-19,3.48-25.44,0-1-.42-1.26-.9-1.26-.9,0-1.38,1.2-1.44,2.82a13.68,13.68,0,0,0,0,1.62c-.06.48-.3.72-.66.72s-.6-.24-.6-1c0-7.32,3.42-10.14,9.12-10.14,4.32,0,6.78,1.86,6.78,6.36,0,4.14-1.08,8.94-1.08,10.74,0,.72.24,1,.66,1s.78-.3,1-2.16c1.14-11,3.72-16.2,8.46-16.2,2.82,0,4.74,1.86,4.74,7.86,0,7.74-1.32,14.34-5.52,14.34-3.12,0-4.08-2.82-4.8-4.92-.36-1-.6-1.38-1.14-1.38s-.84.42-.84,1.86c0,7.5.6,12.9.6,14.46C113,44.28,112.56,44.58,111.84,44.58Z"/><path class="cls-1" d="M140.46,38c0,1.08.36,1.38,1,1.38.84,0,1.26-1,1.32-2.76.06-.84,0-1.44.06-1.68a.59.59,0,0,1,.6-.66c.36,0,.66.18.66.84,0,7.26-3.36,10-9.24,10-6.9,0-8.52-2.88-8.52-8.1,0-6.12,3-13.86,3-18.36,0-.9-.42-1.26-.9-1.26-.9,0-1.32.78-1.38,2.34a13.68,13.68,0,0,0,0,1.62c-.06.42-.3.66-.66.66s-.6-.18-.6-.84c0-7,3.3-9.66,9-9.66,6.66,0,8.58,3,8.58,8C143.4,26.1,140.46,33.78,140.46,38Zm5-33c0,3.54-1.86,5.16-8.46,5.22-5.52.06-7.86-1.26-7.86-4.5,0-4,4.2-5.76,9.06-5.76C142.5,0,145.5,1.56,145.5,5Z"/><path class="cls-1" d="M168.54,35.88c5.46,0,6.9-1.38,6.9-3.36,0-.72-.3-1.56-.24-1.86,0-.48.18-.9.78-.9s.78.48.78,1.2c0,8.52-4,14.52-14.7,14.52-9.72,0-16.26-4-16.26-14.52,0-12.48,5.88-20,19-20,10.08,0,13,3.48,13,10.32,0,4.62-2.46,9-8.1,9-4.74,0-6.6-2.64-6.6-6.18a8.87,8.87,0,0,1,5.64-8.76c1.62-.66,2.1-1.2,2.1-1.86s-.42-1.14-2.52-1.14c-4.62,0-8.88,4.68-8.88,14.58C159.48,34,162.6,35.88,168.54,35.88Z"/><path class="cls-1" d="M194.58,45.48c-8,0-15-3.72-15-14.34,0-14.4,7.44-20.16,18.6-20.16,10,0,13.2,4.14,13.2,9.54,0,4.68-1.68,8.1-8.88,8.28-5.64.12-8,.84-8,3.24,0,1.92,1.56,3.06,4.92,3.06,4.86,0,10-1.62,10-6.06a.6.6,0,0,1,1.2,0C210.66,40.8,206,45.48,194.58,45.48Zm-.42-19c0,1.44.12,2.34,1.08,2.34,1.5,0,4.56-2.16,4.56-14.16,0-2-.66-2.58-1.38-2.58C195.54,12.12,194.16,20.58,194.16,26.52Z"/></g></g></svg>