<svg xmlns="http://www.w3.org/2000/svg" viewBox="0 0 36 40.02"><defs><style>.cls-1{fill:#DE3163;}</style></defs><g id="Layer_2" data-name="Layer 2"><g id="Layer_1-2" data-name="Layer 1"><path class="cls-1" d="M28.08,6.18c2.94,0,3.42,1.32,5,1.32.42,0,.66-.3.66-.9,0-1.26-2.7-3.06-5.7-3.06C20.76,3.54,15.6,9.3,15.6,19.68c0,6.66,2.76,10.5,9.36,10.5,4.26,0,7.5-1.86,7.5-4.38h0c0-.48-.05-1.46.49-1.46.72,0,.77.57.77,1.29s0-.61,0,0C33.18,34.75,28.42,40,16.38,40,5.7,40,0,35,0,24.6,0,8.58,8.94,0,22.14,0,31.74,0,36,4.2,36,11.16c0,6.06-3.54,12.3-9.72,12.3-3.84,0-6.72-1.8-6.72-7.08S22,6.18,28.08,6.18Z"/></g></g></svg>