<svg xmlns="http://www.w3.org/2000/svg" width="1265.026" height="900.326" viewBox="0 0 1265.026 900.326">
  <path id="Polygon_8" data-name="Polygon 8" d="M551.39,20.862a150.219,150.219,0,0,1,108.144,0l114.76,44.276a150.219,150.219,0,0,0,34.878,8.838L924.929,88.889A150.219,150.219,0,0,1,1037.4,165.563l24.75,45.065a150.219,150.219,0,0,0,35.314,42.932l21.408,17.9A150.219,150.219,0,0,1,1156.213,455.2h0a150.221,150.221,0,0,0-16.507,66.054l-.193,11.861a150.219,150.219,0,0,1-93.663,136.729l-71.112,28.887A150.22,150.22,0,0,0,937.5,720.554L864.44,778.933a150.219,150.219,0,0,1-110.648,31.912L622.338,795.983a150.218,150.218,0,0,0-33.751,0L457.133,810.845a150.219,150.219,0,0,1-110.648-31.912l-73.061-58.379a150.22,150.22,0,0,0-37.237-21.818l-71.111-28.887A150.219,150.219,0,0,1,71.412,533.117l-.193-11.857A150.219,150.219,0,0,0,54.712,455.2v0A150.219,150.219,0,0,1,92.05,271.46l21.408-17.9a150.218,150.218,0,0,0,35.314-42.932l24.75-45.065A150.219,150.219,0,0,1,286,88.889L401.752,73.976a150.22,150.22,0,0,0,34.878-8.838Z" transform="matrix(0.998, 0.07, -0.07, 0.998, 57.05, 0)" fill="#FDE3E0"/>
</svg>
