<svg xmlns="http://www.w3.org/2000/svg" width="1366" height="1140.911" viewBox="0 0 1366 1140.911">
  <path id="Subtraction_6" data-name="Subtraction 6" d="M-1295.565,1326.768a140.367,140.367,0,0,1-41.945-6.451,150.637,150.637,0,0,1-38.74-18.64,167.217,167.217,0,0,1-33.506-29.762A188.13,188.13,0,0,1-1436,1232.1V340.692a153.945,153.945,0,0,1,43.38-24.777,140.653,140.653,0,0,1,48.751-8.754c2.981,0,6.011.1,9.008.29l556.418,35.8c2.971.19,5.979.286,8.94.286a140.384,140.384,0,0,0,36.89-4.956l542.632-147.754a140.623,140.623,0,0,1,36.923-4.971c29.052,0,57.649,9.151,82.7,26.463l.29.2.07.048v988.5a140.13,140.13,0,0,1-34.758,4.4c-2.979,0-6.009-.1-9-.29l-556.422-35.8c-2.963-.191-5.971-.288-8.94-.288a140.4,140.4,0,0,0-36.889,4.956L-1258.641,1321.8A140.613,140.613,0,0,1-1295.565,1326.768Z" transform="translate(1436.001 -185.857)" fill="#fde3e0"/>
</svg>
