<svg xmlns="http://www.w3.org/2000/svg" width="1366" height="848.911" viewBox="0 0 1366 848.911">
  <path id="Subtraction_6" data-name="Subtraction 6" d="M-1295.565,1034.768a185.271,185.271,0,0,1-41.945-4.8,177.2,177.2,0,0,1-38.74-13.869,161.658,161.658,0,0,1-33.506-22.145A144.658,144.658,0,0,1-1436,964.328V301.064a173.437,173.437,0,0,1,43.38-18.436,184.472,184.472,0,0,1,48.751-6.514c2.981,0,6.011.073,9.008.216l556.418,26.638c2.971.141,5.979.213,8.94.213a186.076,186.076,0,0,0,36.89-3.688l542.632-109.938a186.387,186.387,0,0,1,36.923-3.7,181.511,181.511,0,0,1,82.7,19.69l.29.15.07.036V941.241a186.019,186.019,0,0,1-34.758,3.271c-2.979,0-6.009-.073-9-.216l-556.422-26.639c-2.963-.142-5.971-.214-8.94-.214a186.091,186.091,0,0,0-36.889,3.688l-542.626,109.938A186.384,186.384,0,0,1-1295.565,1034.768Z" transform="translate(1436.001 -185.857)" fill="#fde3e0"/>
</svg>
