<svg xmlns="http://www.w3.org/2000/svg" width="1366.001" height="172.143" viewBox="0 0 1366.001 172.143">
  <path id="Subtraction_16" data-name="Subtraction 16" d="M-70,172.143H-1436V132.985a162.028,162.028,0,0,1,43.379-21.28,161.431,161.431,0,0,1,48.751-7.52c3,0,6.031.084,9.008.249l556.42,30.748c2.952.164,5.96.247,8.94.247a162.209,162.209,0,0,0,36.89-4.256l542.627-126.9A162.4,162.4,0,0,1-153.06,0a162.106,162.106,0,0,1,82.7,22.73l.241.143.121.072v149.2Z" transform="translate(1436 0)" fill="#fde3e0"/>
</svg>
