<svg xmlns="http://www.w3.org/2000/svg" width="1366.002" height="454.768" viewBox="0 0 1366.002 454.768">
  <path id="Subtraction_17" data-name="Subtraction 17" d="M-1295.564,807.769a161.748,161.748,0,0,1-41.944-5.539,162.473,162.473,0,0,1-38.74-16.01,161.921,161.921,0,0,1-33.506-25.564,161.834,161.834,0,0,1-26.247-34.2V629H-70v70.808a161.989,161.989,0,0,1-34.76,3.775c-2.97,0-6-.084-9.006-.249l-556.421-30.749c-2.936-.162-5.943-.245-8.938-.245a162.179,162.179,0,0,0-36.891,4.255L-1258.64,803.5A162.328,162.328,0,0,1-1295.564,807.769Z" transform="translate(1436 -353.001)" fill="#fde3e0"/>
</svg>
